<svg width="205" height="210" viewBox="0 0 205 210" fill="none" xmlns="http://www.w3.org/2000/svg">
<g opacity="0.5">
<path d="M41.544 90.6952C44.315 98.1537 51.1975 107.468 67.97 112.969C70.3017 113.734 72.3293 114.814 74.0977 116.142C66.2015 113.127 54.7119 110.989 41.9833 115.849C41.6679 115.973 41.4876 116.311 41.5552 116.637C41.8143 117.818 42.1072 118.988 42.4226 120.147C42.5352 120.529 42.9633 120.732 43.335 120.585C61.7296 113.341 77.3644 122.644 81.1267 125.198C86.0492 135.784 86.0266 150.982 86.0041 164.976L85.9928 167.114C85.9928 167.474 86.2857 167.778 86.6462 167.778H90.2395C90.5999 167.778 90.8928 167.485 90.8928 167.125L90.9041 164.999C90.9379 141.735 90.9829 115.377 69.4907 108.323C69.4569 108.312 69.4343 108.312 69.4118 108.301C67.4856 98.9524 68.8261 91.1227 70.1553 83.5404C71.9012 73.4945 73.5571 63.9661 66.6858 53.4252C66.4718 53.099 66.0213 53.0202 65.7059 53.2452C64.7371 53.9539 63.7909 54.6852 62.8673 55.4389C62.5969 55.6526 62.5519 56.0464 62.7321 56.3276C68.3755 65.1473 67.0125 72.9995 65.3229 82.708C64.1176 89.604 62.7884 97.2987 64.0725 106.242C48.663 99.4361 45.34 89.0977 44.7205 83.5854C44.6416 82.8767 43.6391 82.7642 43.4138 83.4392C42.6479 85.6779 42.0171 87.9728 41.5102 90.3127C41.4989 90.4364 41.4989 90.5714 41.544 90.6952Z" fill="#9E845C"/>
<path d="M161.013 120.721C161.385 120.856 161.801 120.664 161.914 120.282C162.241 119.123 162.534 117.953 162.793 116.783C162.86 116.457 162.68 116.108 162.353 115.996C145.108 109.662 129.946 114.702 122.038 118.561C124.122 113.172 127.412 108.526 132.593 105.826C138.236 102.89 143.79 101.63 148.678 100.516C154.389 99.2225 159.898 97.9738 163.311 94.0702C163.446 93.9127 163.502 93.7102 163.468 93.5077C163.187 91.764 162.838 90.0428 162.41 88.3441C162.241 87.6916 161.34 87.6691 161.103 88.2991C159.47 92.8327 155.313 93.9802 147.575 95.7576C142.393 96.9388 136.513 98.2775 130.318 101.506C127.761 102.834 125.598 104.521 123.762 106.445C120.574 102.474 117.724 96.5901 117.871 90.0766C118.006 84.373 120.461 79.3107 125.17 75.0471C134.26 66.8011 136.412 58.8026 136.423 52.0641C136.423 51.8391 136.31 51.6254 136.108 51.4904C134.914 50.7029 133.697 49.9604 132.447 49.2629C131.985 49.0042 131.41 49.3642 131.444 49.9042C131.928 56.4177 130.577 63.5162 121.858 71.4247C116.204 76.5545 113.128 82.9668 112.959 89.9641C112.757 98.2663 116.587 105.669 120.653 110.382C113.444 121.452 113.466 137.46 113.478 147.168V167.148C113.478 167.508 113.77 167.8 114.131 167.8H117.724C118.085 167.8 118.378 167.508 118.378 167.148V147.157C118.366 141.341 118.355 133.061 120.033 125.254C124.224 122.667 141.39 113.375 161.013 120.721Z" fill="#9E845C"/>
<path d="M102.022 91.1786C106.449 83.8101 111.957 74.6417 112.881 62.8858C113.816 50.9612 116.711 46.2926 118.445 44.5377C118.806 44.1777 118.637 43.559 118.141 43.424C116.835 43.0752 115.517 42.7715 114.176 42.5128C113.917 42.4678 113.658 42.569 113.5 42.7828C111.18 46.0451 108.826 51.9174 107.992 62.5033C107.159 73.123 102.191 81.3689 97.8205 88.6587C95.5113 92.5061 93.3937 96.0272 92.1095 99.4921C86.6801 91.0549 83.1206 84.3501 88.7302 69.5119C94.2835 54.8311 95.6353 46.5964 95.8493 42.4565C95.8718 42.0403 95.5113 41.714 95.0946 41.759C93.8668 41.9053 92.6502 42.074 91.4449 42.2878C91.1408 42.344 90.9155 42.5915 90.893 42.8952C90.5888 46.6076 89.2709 54.2574 84.1457 67.7794C77.342 85.7563 82.9629 94.4185 88.9217 103.587C94.0019 111.405 99.758 120.27 99.758 137.235V167.125C99.758 167.485 100.051 167.777 100.411 167.777H104.005C104.365 167.777 104.658 167.485 104.658 167.125V137.235C104.658 121.991 100.242 112.564 95.7817 105.252C96.052 101.123 98.8343 96.4997 102.022 91.1786Z" fill="#9E845C"/>
<path d="M133.28 86.1271L132.233 86.3521C126.916 87.5109 123.537 92.7532 124.697 98.0742L124.922 99.1205C125.001 99.458 125.328 99.6717 125.677 99.6042L126.725 99.3792C132.041 98.2205 135.421 92.9782 134.26 87.6571L134.035 86.6109C133.956 86.2621 133.618 86.0484 133.28 86.1271Z" fill="#9E845C"/>
<path d="M137.302 132.183L138.225 131.644C138.529 131.475 138.631 131.081 138.462 130.777L137.921 129.855C135.195 125.141 129.169 123.533 124.449 126.255L123.525 126.795C123.221 126.964 123.12 127.357 123.289 127.661L123.83 128.584C126.555 133.286 132.582 134.906 137.302 132.183Z" fill="#9E845C"/>
<path d="M111.169 121.159L112.182 121.519C112.509 121.643 112.87 121.463 112.994 121.136L113.354 120.135C115.213 115.028 112.554 109.38 107.44 107.524L106.426 107.164C106.1 107.041 105.739 107.221 105.615 107.547L105.255 108.548C103.408 113.655 106.055 119.303 111.169 121.159Z" fill="#9E845C"/>
<path d="M109.805 94.5649C104.41 93.8 99.4198 97.5461 98.6538 102.923L98.5074 103.981C98.4623 104.33 98.6989 104.645 99.0481 104.69L100.096 104.858C105.491 105.623 110.481 101.888 111.247 96.4999L111.394 95.4424C111.439 95.0937 111.202 94.7787 110.853 94.7337L109.805 94.5649Z" fill="#9E845C"/>
<path d="M101.436 67.0258C96.0519 66.2271 91.0393 69.9507 90.2395 75.3281L90.0818 76.3855C90.0255 76.7343 90.2733 77.0493 90.6112 77.1055L91.6701 77.263C97.0544 78.0617 102.067 74.3381 102.867 68.9608L103.024 67.9033C103.081 67.5546 102.833 67.2396 102.495 67.1833L101.436 67.0258Z" fill="#9E845C"/>
<path d="M78.536 91.8088L77.5335 92.1801C72.4308 94.07 69.8175 99.7286 71.6986 104.825L72.0703 105.826C72.1943 106.152 72.5547 106.321 72.8814 106.197L73.8839 105.826C78.9866 103.947 81.5999 98.2774 79.7188 93.1813L79.3471 92.1801C79.2344 91.8651 78.874 91.6963 78.536 91.8088Z" fill="#9E845C"/>
<path d="M62.2028 81.8299L63.2616 81.9762C63.6108 82.0212 63.9262 81.7849 63.9712 81.4362L64.1177 80.3787C64.8837 74.9901 61.1439 70.0066 55.7483 69.2416L54.6895 69.0953C54.3403 69.0503 54.0249 69.2866 53.9798 69.6353L53.8334 70.6928C53.0674 76.0814 56.8184 81.0649 62.2028 81.8299Z" fill="#9E845C"/>
<path d="M55.3879 83.1241L54.6332 83.8778C50.7808 87.7252 50.7808 93.9575 54.6332 97.8049L55.3879 98.5586C55.6357 98.8061 56.03 98.8061 56.2778 98.5586L57.0325 97.8049C60.8849 93.9575 60.8849 87.7252 57.0325 83.8778L56.2778 83.1241C56.03 82.8766 55.6357 82.8766 55.3879 83.1241Z" fill="#9E845C"/>
<path d="M80.4059 65.293L81.4196 65.653C81.7463 65.7655 82.1068 65.5967 82.2307 65.2705L82.5911 64.258C84.4272 59.1394 81.7576 53.5034 76.6211 51.6697L75.6073 51.3097C75.2806 51.1972 74.9202 51.366 74.7962 51.6922L74.4358 52.7047C72.611 57.8345 75.2806 63.4593 80.4059 65.293Z" fill="#9E845C"/>
<path d="M105.232 55.9112L106.269 56.17C106.607 56.2599 106.956 56.0462 107.035 55.7087L107.294 54.6737C108.623 49.3977 105.424 44.0541 100.152 42.7154L99.1158 42.4567C98.7779 42.3667 98.4287 42.5804 98.3498 42.9179L98.0907 43.9529C96.7503 49.2289 99.9493 54.5838 105.232 55.9112Z" fill="#9E845C"/>
<path d="M146.291 106.276L145.66 107.142C145.457 107.423 145.525 107.817 145.806 108.019L146.674 108.649C151.089 111.822 157.251 110.82 160.439 106.411L161.069 105.544C161.272 105.263 161.205 104.869 160.923 104.667L160.056 104.037C155.64 100.853 149.479 101.866 146.291 106.276Z" fill="#9E845C"/>
<path d="M78.2993 126.795L77.3757 126.255C72.6559 123.533 66.6295 125.152 63.9036 129.855L63.3629 130.777C63.1939 131.081 63.2953 131.464 63.5994 131.644L64.5231 132.183C69.2429 134.906 75.2692 133.286 77.9952 128.584L78.5359 127.661C78.7049 127.357 78.6035 126.964 78.2993 126.795Z" fill="#9E845C"/>
<path d="M145.39 120.754L144.331 120.945C143.993 121.002 143.756 121.339 143.824 121.677L144.015 122.734C144.984 128.089 150.109 131.644 155.46 130.676L156.519 130.485C156.857 130.429 157.093 130.091 157.026 129.754L156.834 128.696C155.865 123.353 150.74 119.787 145.39 120.754Z" fill="#9E845C"/>
<path d="M60.6595 120.945L59.6006 120.754C54.2388 119.787 49.1136 123.353 48.1561 128.696L47.9646 129.754C47.9083 130.091 48.1336 130.429 48.4715 130.485L49.5304 130.676C54.8922 131.644 60.0174 128.078 60.9749 122.734L61.1664 121.677C61.234 121.339 61.0087 121.002 60.6595 120.945Z" fill="#9E845C"/>
<path d="M140.681 79.7826C140.94 79.5464 140.951 79.1414 140.715 78.8939L139.983 78.1065C136.277 74.1241 130.036 73.8878 126.049 77.589L125.26 78.3202C125.001 78.5564 124.99 78.9614 125.226 79.2089L125.959 79.9964C129.665 83.9788 135.905 84.215 139.893 80.5139L140.681 79.7826Z" fill="#9E845C"/>
<path d="M147.958 64.6296L148.318 63.6171C148.431 63.2908 148.262 62.9309 147.935 62.8071L146.921 62.4471C141.796 60.6134 136.153 63.2796 134.317 68.4094L133.956 69.4219C133.843 69.7481 134.012 70.1081 134.339 70.2319L135.353 70.5918C140.489 72.4143 146.133 69.7481 147.958 64.6296Z" fill="#9E845C"/>
<path d="M116.643 61.9859C116.643 62.3346 116.925 62.6158 117.274 62.6158H118.344C123.785 62.6158 128.2 58.206 128.2 52.7724V51.7037C128.2 51.355 127.918 51.0737 127.569 51.0737H126.499C121.059 51.0737 116.643 55.4836 116.643 60.9171V61.9859Z" fill="#9E845C"/>
<path d="M145.401 91.5612C145.446 91.9099 145.772 92.1462 146.122 92.1012L147.181 91.9437C152.565 91.1675 156.305 86.1726 155.527 80.7953L155.37 79.7378C155.325 79.3891 154.998 79.1529 154.649 79.1979L153.59 79.3554C148.206 80.1316 144.466 85.1264 145.232 90.5037L145.401 91.5612Z" fill="#9E845C"/>
<path d="M42.6367 31.2854L39.4038 18.7871L37.6691 20.1371L40.1698 29.778L31.4287 25.0081L29.5475 26.4818L40.9245 32.6129L42.6367 31.2854Z" fill="#9E845C"/>
<path d="M47.1379 14.1289L45.243 15.2383L51.2355 25.448L53.1305 24.3386L47.1379 14.1289Z" fill="#9E845C"/>
<path d="M61.4816 20.0699L58.4628 12.6452L67.5306 17.6062L69.2089 16.9313L64.7483 5.96289L62.732 6.78411L65.7508 14.2089L56.6718 9.24778L54.9934 9.92276L59.4541 20.8911L61.4816 20.0699Z" fill="#9E845C"/>
<path d="M86.7702 12.8809L86.3872 9.44976L89.0456 9.14602C89.2483 9.12353 89.3948 9.10103 89.4962 9.07853L92.2897 12.2509L94.6439 11.9809L91.5012 8.42605C92.2784 8.02106 92.8416 7.48108 93.2021 6.7836C93.5626 6.08613 93.6865 5.3099 93.5964 4.42118C93.495 3.55496 93.2134 2.83499 92.7403 2.26126C92.2672 1.67628 91.6364 1.26004 90.8366 1.01255C90.0368 0.765058 89.1357 0.697561 88.1106 0.810057L83.2557 1.36129L84.5849 13.1171L86.7702 12.8809ZM88.212 2.67749C89.1695 2.565 89.9129 2.68874 90.4536 3.03748C90.9943 3.38622 91.3097 3.93745 91.3886 4.67993C91.4674 5.4224 91.2872 6.04113 90.8479 6.50236C90.3973 6.9636 89.6989 7.25609 88.7527 7.35734L86.1957 7.64983L85.6663 2.95873L88.212 2.67749Z" fill="#9E845C"/>
<path d="M103.092 11.3962C104.027 11.9812 105.097 12.3187 106.302 12.3974C107.508 12.4762 108.612 12.2962 109.614 11.8349C110.617 11.3737 111.428 10.71 112.036 9.82127C112.644 8.93255 112.993 7.92008 113.072 6.76137C113.151 5.60266 112.948 4.54519 112.453 3.58898C111.968 2.63276 111.248 1.85653 110.324 1.27155C109.389 0.686574 108.319 0.349085 107.114 0.270338C105.908 0.19159 104.804 0.371584 103.802 0.832819C102.799 1.29405 101.988 1.96903 101.38 2.85775C100.76 3.74647 100.423 4.77019 100.344 5.91765C100.265 7.06511 100.468 8.12257 100.963 9.09004C101.448 10.0238 102.157 10.8 103.092 11.3962ZM102.563 6.04139C102.619 5.25392 102.844 4.55644 103.25 3.94896C103.655 3.34148 104.185 2.88025 104.838 2.56526C105.491 2.25027 106.212 2.12653 107.001 2.18277C107.789 2.23902 108.488 2.46401 109.096 2.85775C109.704 3.25149 110.166 3.78022 110.482 4.44395C110.797 5.10767 110.932 5.82765 110.876 6.61512C110.819 7.4026 110.594 8.10007 110.189 8.70755C109.783 9.31503 109.254 9.77627 108.6 10.0913C107.936 10.395 107.215 10.53 106.426 10.4737C105.638 10.4175 104.94 10.1925 104.331 9.79877C103.723 9.40503 103.261 8.8763 102.946 8.21257C102.63 7.56009 102.506 6.82887 102.563 6.04139Z" fill="#9E845C"/>
<path d="M123.706 15.2212C125.294 15.6375 126.634 15.5137 127.75 14.85C128.865 14.1863 129.631 13.0275 130.07 11.3739L131.76 4.91657L129.664 4.36534L127.997 10.7439C127.412 12.9938 126.15 13.86 124.213 13.3538C122.264 12.8476 121.588 11.4751 122.174 9.22518L123.841 2.84664L121.712 2.29541L120.022 8.75269C119.594 10.4064 119.696 11.8013 120.349 12.9151C121.002 14.0513 122.117 14.8162 123.706 15.2212Z" fill="#9E845C"/>
<path d="M137.617 19.1586C138.27 20.0473 139.149 20.7448 140.242 21.251C141.019 21.611 141.83 21.8472 142.675 21.9597C143.52 22.0722 144.319 22.0272 145.074 21.8472L147.079 17.5724L145.198 16.6949L143.632 20.036C142.821 20.1035 141.999 19.946 141.165 19.5523C140.422 19.2036 139.825 18.7311 139.397 18.1236C138.958 17.5274 138.71 16.8636 138.642 16.1324C138.575 15.4012 138.71 14.6812 139.048 13.9725C139.397 13.2413 139.859 12.6563 140.467 12.2401C141.064 11.8238 141.729 11.5988 142.472 11.5538C143.215 11.5088 143.959 11.6663 144.714 12.0263C145.874 12.5663 146.662 13.4325 147.102 14.6362L148.938 13.995C148.701 13.185 148.284 12.465 147.687 11.8238C147.09 11.1826 146.347 10.6539 145.446 10.2376C144.342 9.72014 143.238 9.49515 142.134 9.55139C141.03 9.60764 140.028 9.94513 139.138 10.5526C138.248 11.1601 137.55 11.9813 137.065 13.0388C136.57 14.085 136.378 15.1537 136.491 16.2224C136.603 17.2911 136.964 18.2699 137.617 19.1586Z" fill="#9E845C"/>
<path d="M158.704 30.1046L153.218 26.2798L155.088 23.6023L159.785 26.876L160.821 25.391L156.124 22.1174L157.882 19.5975L163.176 23.2761L164.235 21.7687L157.138 16.8301L150.368 26.5385L157.656 31.6121L158.704 30.1046Z" fill="#9E845C"/>
<path d="M16.7625 142.263L6.4669 142.623L14.4871 136.177L13.7098 134.13L3.45933 134.445L11.4457 128.066L10.5784 125.76L0.0913086 134.197L0.981187 136.571L10.9613 136.267L3.21152 142.533L4.1014 144.896L17.551 144.378L16.7625 142.263Z" fill="#9E845C"/>
<path d="M17.5441 149.65L9.112 154.549L10.2617 156.523L18.6938 151.624L17.5441 149.65Z" fill="#9E845C"/>
<path d="M21.0092 147.764C20.6375 147.652 20.2883 147.697 19.9504 147.888C19.6124 148.079 19.3984 148.372 19.3196 148.743C19.2294 149.114 19.297 149.486 19.4998 149.834C19.7138 150.206 20.0067 150.431 20.3784 150.532C20.7501 150.633 21.1106 150.577 21.4598 150.374C21.7864 150.183 21.9892 149.902 22.0568 149.542C22.1356 149.171 22.068 148.811 21.854 148.451C21.6625 148.113 21.3809 147.877 21.0092 147.764Z" fill="#9E845C"/>
<path d="M23.9042 159.846C23.3748 159.531 22.8116 159.362 22.2258 159.34L23.2283 158.575L21.9104 156.854L14.1606 162.76L15.5461 164.571L19.4661 161.578C20.2208 161.005 20.9417 160.757 21.6401 160.836C22.3385 160.915 22.9355 161.286 23.4536 161.961C23.9042 162.546 24.0844 163.131 23.983 163.716C23.8817 164.301 23.4987 164.841 22.8228 165.358L18.61 168.564L19.9955 170.376L24.4336 166.989C25.56 166.134 26.1796 165.189 26.2922 164.166C26.4161 163.142 26.1007 162.141 25.3573 161.162C24.918 160.6 24.4336 160.161 23.9042 159.846Z" fill="#9E845C"/>
<path d="M35.0669 171.883C34.3686 171.22 33.6026 170.781 32.7465 170.556C31.9017 170.331 31.0569 170.353 30.212 170.601C29.3672 170.848 28.6238 171.321 27.9704 172.007C27.3059 172.705 26.8778 173.481 26.6751 174.336C26.4723 175.191 26.5173 176.057 26.8215 176.923C27.1144 177.789 27.655 178.599 28.4323 179.331C29.0406 179.904 29.6826 180.332 30.3472 180.602C31.0118 180.872 31.6877 180.962 32.3635 180.883L32.4424 179.027C31.4511 179.061 30.5725 178.712 29.7953 177.969C29.187 177.396 28.8265 176.755 28.7026 176.057C28.5787 175.36 28.7252 174.707 29.1194 174.1L34.6614 179.364C34.8755 179.173 35.0444 179.016 35.1571 178.903C35.8442 178.183 36.2948 177.396 36.52 176.563C36.7453 175.731 36.7228 174.898 36.475 174.077C36.2272 173.256 35.7541 172.536 35.0669 171.883ZM34.1658 176.822L30.1557 173.008C30.7302 172.57 31.3497 172.356 32.0143 172.39C32.6789 172.423 33.2759 172.693 33.8053 173.2C34.346 173.706 34.6389 174.291 34.7065 174.955C34.7628 175.618 34.5826 176.237 34.1658 176.822Z" fill="#9E845C"/>
<path d="M45.6556 180.591C44.5855 179.826 43.5717 179.443 42.6255 179.454C41.6793 179.454 40.9358 179.837 40.3951 180.591C39.9896 181.164 39.8207 181.716 39.8882 182.256C39.9558 182.795 40.1586 183.268 40.474 183.695C40.7894 184.123 41.24 184.607 41.8257 185.18C42.3777 185.72 42.7606 186.148 42.9634 186.463C43.1662 186.778 43.1662 187.07 42.9747 187.34C42.5579 187.925 41.7919 187.824 40.688 187.025C40.2036 186.677 39.7643 186.26 39.3588 185.754C38.9646 185.259 38.6717 184.764 38.4802 184.269L36.7568 185.169C36.937 185.687 37.2749 186.249 37.7706 186.857C38.2662 187.464 38.8294 187.993 39.4827 188.454C40.5866 189.241 41.6229 189.646 42.5917 189.658C43.5491 189.669 44.3038 189.309 44.8333 188.567C45.2388 188.004 45.3965 187.464 45.3289 186.947C45.25 186.429 45.0586 185.968 44.7432 185.552C44.4278 185.135 43.9884 184.652 43.4252 184.1C42.8733 183.538 42.479 183.088 42.265 182.75C42.051 182.413 42.051 182.098 42.265 181.794C42.4565 181.524 42.7494 181.412 43.1549 181.446C43.5491 181.479 44.0222 181.693 44.5742 182.087C45.419 182.683 46.0385 183.425 46.4215 184.303L48.145 183.403C47.9422 182.942 47.6155 182.469 47.165 181.952C46.7031 181.423 46.2075 180.973 45.6556 180.591Z" fill="#9E845C"/>
<path d="M58.2038 188.106C57.5955 187.802 56.9985 187.611 56.4128 187.543C55.827 187.487 55.2638 187.543 54.7457 187.734L56.9873 183.347L54.9484 182.312L48.7869 194.36L50.8144 195.395L53.056 191.008C53.4841 190.164 54.036 189.624 54.7006 189.399C55.3652 189.174 56.0749 189.253 56.8183 189.624C57.4829 189.962 57.8884 190.412 58.0574 190.985C58.2151 191.548 58.1024 192.212 57.7194 192.977L55.3089 197.69L57.3477 198.725L59.8822 193.753C60.5243 192.493 60.682 191.379 60.344 190.4C60.0061 189.422 59.2964 188.668 58.2038 188.106Z" fill="#9E845C"/>
<path d="M74.0976 195.035C73.4781 194.394 72.6896 193.91 71.7321 193.606C70.7972 193.303 69.8848 193.235 68.9949 193.404C68.1163 193.573 67.339 193.944 66.6857 194.529C66.0324 195.114 65.5593 195.856 65.2664 196.779C64.9735 197.701 64.9172 198.579 65.1087 199.445C65.3002 200.311 65.7057 201.054 66.3365 201.706C66.9673 202.359 67.7445 202.82 68.6795 203.124C69.6257 203.427 70.5494 203.495 71.428 203.337C72.3066 203.169 73.0838 202.797 73.7371 202.212C74.3905 201.627 74.8636 200.874 75.1565 199.962C75.4493 199.051 75.4944 198.162 75.3029 197.307C75.1339 196.43 74.7284 195.676 74.0976 195.035ZM72.9824 199.231C72.7008 200.097 72.2165 200.716 71.5293 201.087C70.8422 201.459 70.0875 201.515 69.2878 201.256C68.488 200.997 67.9135 200.525 67.5756 199.827C67.2264 199.13 67.1926 198.342 67.4742 197.476C67.7558 196.61 68.2402 195.991 68.916 195.62C69.6032 195.249 70.3466 195.193 71.1464 195.451C71.9461 195.71 72.5206 196.183 72.8698 196.88C73.2303 197.589 73.264 198.365 72.9824 199.231Z" fill="#9E845C"/>
<path d="M89.7214 198.163C89.0456 197.645 88.2345 197.319 87.2996 197.173C86.635 197.071 86.0155 197.094 85.4297 197.24C84.844 197.386 84.3371 197.656 83.8978 198.061L84.0893 196.801L81.9378 196.475L79.9666 209.603L82.2194 209.941L82.9178 205.272C83.5486 206.251 84.5061 206.836 85.8127 207.027C86.7476 207.162 87.6263 207.083 88.426 206.791C89.2258 206.499 89.8904 206.004 90.4311 205.306C90.9605 204.62 91.3097 203.787 91.4449 202.809C91.5913 201.83 91.5124 200.941 91.197 200.131C90.8929 199.355 90.3973 198.691 89.7214 198.163ZM89.1582 202.494C89.023 203.394 88.6513 204.08 88.0318 204.552C87.4122 205.025 86.6913 205.205 85.8578 205.07C85.3171 204.991 84.844 204.789 84.4497 204.485C84.0555 204.17 83.7626 203.776 83.5824 203.27C83.4022 202.775 83.3458 202.224 83.4359 201.627C83.5261 201.031 83.7288 200.514 84.0555 200.097C84.3822 199.681 84.7764 199.377 85.2382 199.198C85.7113 199.018 86.2182 198.961 86.7589 199.051C87.5925 199.175 88.2345 199.557 88.6851 200.187C89.1357 200.817 89.2934 201.594 89.1582 202.494Z" fill="#9E845C"/>
<path d="M116.62 201.189L114.728 200.772C114.638 201.627 114.48 202.358 114.232 202.988L111.225 200.649C112.092 200.041 112.701 199.456 113.061 198.905C113.41 198.354 113.557 197.757 113.489 197.105C113.399 196.25 113.027 195.597 112.363 195.159C111.698 194.72 110.842 194.551 109.817 194.652C108.702 194.765 107.834 195.125 107.215 195.744C106.595 196.362 106.336 197.116 106.426 198.016C106.471 198.489 106.629 198.939 106.888 199.355C107.147 199.771 107.564 200.21 108.116 200.671C107.136 201.357 106.438 202.021 106.043 202.662C105.638 203.303 105.48 204.023 105.559 204.811C105.627 205.463 105.886 206.026 106.336 206.498C106.787 206.971 107.384 207.32 108.116 207.533C108.848 207.747 109.659 207.815 110.538 207.736C112.194 207.567 113.568 206.915 114.649 205.778L116.406 207.162L117.51 205.565L115.764 204.203C116.204 203.348 116.485 202.347 116.62 201.189ZM108.837 196.756C109.107 196.475 109.479 196.317 109.986 196.261C110.448 196.216 110.819 196.284 111.101 196.475C111.383 196.666 111.54 196.947 111.585 197.33C111.619 197.679 111.507 198.016 111.259 198.342C111 198.669 110.538 199.062 109.851 199.535C109.355 199.13 109.017 198.804 108.837 198.567C108.657 198.32 108.544 198.061 108.521 197.769C108.454 197.375 108.567 197.037 108.837 196.756ZM110.515 205.868C109.738 205.947 109.096 205.846 108.589 205.565C108.082 205.283 107.801 204.878 107.756 204.35C107.71 203.888 107.812 203.461 108.071 203.067C108.33 202.673 108.803 202.235 109.49 201.762L113.174 204.642C112.464 205.351 111.574 205.767 110.515 205.868Z" fill="#9E845C"/>
<path d="M136.772 198.635L129.349 190.884L126.939 191.784L136.626 201.796L138.822 200.986L139.577 187.082L137.358 187.903L136.772 198.635Z" fill="#9E845C"/>
<path d="M145.502 184.989C145.615 184.618 145.581 184.258 145.39 183.898C145.209 183.56 144.939 183.358 144.579 183.268C144.218 183.178 143.846 183.234 143.486 183.425C143.114 183.617 142.878 183.898 142.754 184.258C142.63 184.618 142.652 184.978 142.833 185.315C143.013 185.653 143.294 185.878 143.655 185.979C144.027 186.08 144.398 186.035 144.759 185.844C145.142 185.642 145.378 185.36 145.502 184.989Z" fill="#9E845C"/>
<path d="M146.509 186.733L144.486 187.798L149.035 196.416L151.058 195.351L146.509 186.733Z" fill="#9E845C"/>
<path d="M159.368 179.668C158.343 179.511 157.33 179.781 156.327 180.478C155.741 180.894 155.28 181.355 154.942 181.873C154.604 182.39 154.412 182.942 154.356 183.527L153.635 182.492L151.855 183.74L157.442 191.716L159.312 190.411L156.485 186.373C155.944 185.597 155.719 184.865 155.831 184.168C155.944 183.47 156.338 182.885 157.025 182.413C157.634 181.985 158.231 181.839 158.805 181.963C159.38 182.087 159.92 182.492 160.405 183.189L163.446 187.52L165.316 186.215L162.117 181.648C161.306 180.489 160.382 179.837 159.368 179.668Z" fill="#9E845C"/>
<path d="M174.508 174.133C174.496 175.123 174.114 175.989 173.336 176.732C172.728 177.317 172.086 177.654 171.388 177.744C170.689 177.834 170.036 177.666 169.45 177.249L174.947 171.94C174.756 171.715 174.609 171.546 174.508 171.433C173.809 170.713 173.055 170.23 172.221 169.982C171.388 169.735 170.565 169.712 169.732 169.926C168.898 170.14 168.143 170.578 167.468 171.242C166.78 171.906 166.307 172.66 166.048 173.503C165.789 174.347 165.778 175.179 165.992 176.034C166.206 176.878 166.645 177.643 167.31 178.329C167.974 179.016 168.74 179.488 169.585 179.724C170.43 179.961 171.297 179.949 172.176 179.691C173.055 179.432 173.888 178.926 174.654 178.183C175.262 177.598 175.702 176.979 176.006 176.327C176.31 175.674 176.423 174.999 176.378 174.324L174.508 174.133ZM167.839 174.302C167.907 173.638 168.2 173.053 168.718 172.547C169.247 172.03 169.844 171.76 170.509 171.726C171.174 171.692 171.782 171.895 172.345 172.333L168.369 176.181C167.952 175.584 167.772 174.954 167.839 174.302Z" fill="#9E845C"/>
<path d="M180.027 156.764L178.687 158.497L182.516 165.336L174.936 163.368L173.482 165.246L183.834 167.856L184.037 168.216C184.285 168.689 184.42 169.094 184.42 169.42C184.42 169.757 184.307 170.072 184.06 170.399C183.868 170.635 183.643 170.837 183.361 171.006C183.08 171.175 182.798 171.276 182.494 171.321L183.271 173.065C183.677 172.997 184.093 172.817 184.51 172.536C184.927 172.255 185.287 171.929 185.58 171.546C186.11 170.86 186.391 170.151 186.414 169.409C186.448 168.666 186.166 167.8 185.592 166.821L180.027 156.764Z" fill="#9E845C"/>
<path d="M186.583 147.472C185.614 147.798 184.769 148.586 184.06 149.834C183.665 150.532 183.384 151.241 183.204 151.972C183.023 152.703 182.99 153.378 183.08 154.019L184.972 154.053C184.882 153.58 184.905 153.085 185.017 152.534C185.13 151.994 185.321 151.477 185.592 151.004C185.986 150.307 186.448 149.868 186.966 149.688C187.484 149.508 188.036 149.598 188.633 149.924L188.757 149.992L187.518 152.186C186.831 153.4 186.56 154.424 186.696 155.245C186.831 156.078 187.293 156.697 188.047 157.135C188.532 157.405 189.05 157.529 189.579 157.484C190.109 157.439 190.627 157.248 191.111 156.888C191.596 156.539 192.024 156.044 192.384 155.403C192.745 154.773 192.947 154.165 193.015 153.614C193.082 153.063 192.981 152.545 192.756 152.096L193.792 152.68L194.851 150.802L189.872 147.989C188.656 147.326 187.563 147.146 186.583 147.472ZM191.055 151.308C191.393 151.702 191.562 152.163 191.573 152.68C191.584 153.198 191.449 153.704 191.168 154.199C190.886 154.705 190.548 155.043 190.176 155.212C189.805 155.38 189.433 155.358 189.072 155.155C188.318 154.728 188.273 153.952 188.915 152.804L190.075 150.757L191.055 151.308Z" fill="#9E845C"/>
<path d="M192.598 138.742C192.305 138.09 192.328 137.347 192.654 136.526C192.711 136.38 192.801 136.222 192.902 136.054L190.886 135.244C190.266 136.774 190.311 138.045 191.01 139.035L189.692 138.506L188.881 140.52L197.926 144.153L198.782 142.038L194.4 140.272C193.488 139.901 192.891 139.395 192.598 138.742Z" fill="#9E845C"/>
<path d="M204.403 123.701L191.258 120.417L190.706 122.633L195.56 123.848C195.042 124.106 194.614 124.466 194.265 124.939C193.927 125.4 193.668 125.951 193.51 126.57C193.285 127.481 193.274 128.347 193.499 129.169C193.713 129.99 194.141 130.71 194.772 131.306C195.403 131.902 196.191 132.319 197.149 132.555C198.106 132.791 199.007 132.802 199.841 132.566C200.686 132.341 201.395 131.914 201.981 131.284C202.567 130.654 202.972 129.889 203.198 128.989C203.355 128.336 203.4 127.718 203.31 127.121C203.22 126.525 202.995 125.996 202.646 125.513L203.862 125.816L204.403 123.701ZM201.373 128.246C201.238 128.775 201.001 129.225 200.652 129.585C200.303 129.945 199.875 130.204 199.368 130.339C198.861 130.474 198.309 130.462 197.712 130.316C197.126 130.17 196.631 129.911 196.248 129.551C195.865 129.191 195.594 128.764 195.459 128.28C195.324 127.796 195.324 127.29 195.459 126.761C195.594 126.233 195.831 125.783 196.18 125.423C196.529 125.063 196.957 124.815 197.464 124.669C197.971 124.534 198.523 124.534 199.12 124.691C199.706 124.838 200.201 125.096 200.584 125.456C200.967 125.816 201.238 126.244 201.373 126.728C201.508 127.2 201.508 127.718 201.373 128.246Z" fill="#9E845C"/>
<path d="M199.424 96.7698C198.715 78.7029 193.015 61.1872 182.945 46.1353L181.075 47.384C190.92 62.0985 196.484 79.2091 197.183 96.8598L199.424 96.7698Z" fill="#9E845C"/>
<path d="M25.1656 47.4403L23.352 46.1016C12.3468 60.8836 5.74595 78.3992 4.27032 96.7586L6.51192 96.9386C7.96501 79.0067 14.4082 61.8848 25.1656 47.4403Z" fill="#9E845C"/>
</g>
</svg>
